<svg width="1836" height="623" viewBox="0 0 1836 623" fill="none" xmlns="http://www.w3.org/2000/svg">
<path opacity="0.35" d="M852.699 378.993C867.913 412.721 894.212 526.79 666.212 526.79C478.212 526.79 452.212 459 300.712 459C57.212 459 0.5 585.871 0.5 623C82 623 1708.73 623 1827.5 623C1844.67 584.371 1831.89 562.825 1816.27 526.79C1797.87 484.323 1771.51 441.871 1775.73 395.782C1779.12 358.814 1801.88 326.545 1811.15 290.602C1831.11 213.176 1780.81 128.463 1708.06 95.2925C1635.32 62.1173 1547.6 74.4185 1477.41 112.69C1443.09 131.405 1409.73 156.643 1370.67 158.203C1321.48 160.165 1279.64 124.122 1245.83 88.3162C1212.03 52.506 1176.94 12.4827 1128.76 2.30412C1096.97 -4.41601 1062.35 3.78162 1036.94 24.0472C1011.54 44.3083 995.841 76.2438 995.32 108.742C994.757 143.921 1010.22 182.371 991.798 212.348C966.581 253.378 900.673 243.19 865.306 275.88C838.136 300.995 837.481 345.264 852.699 378.993Z" fill="#242953"/>
</svg>
