<svg width="64" height="40" viewBox="0 0 64 40" fill="none" xmlns="http://www.w3.org/2000/svg">
<path id="&#226;&#128;&#156;" d="M1.95089 40C1.22834 40 0.650296 39.8113 0.216765 39.434C-0.0722551 38.9308 -0.0722551 38.3648 0.216765 37.7359L15.8239 1.50944C16.2574 0.503145 17.0522 0 18.2083 0H29.9136C30.6362 0 31.142 0.18868 31.431 0.566041C31.8645 0.943402 32.009 1.44655 31.8645 2.07548L20.376 38.3019C20.0869 39.434 19.2921 40 17.9915 40H1.95089ZM34.2489 40C33.5264 40 32.9483 39.8113 32.5148 39.434C32.2258 38.9308 32.2258 38.3648 32.5148 37.7359L47.9052 1.50944C48.3387 0.503145 49.1335 0 50.2896 0H61.9949C62.7175 0 63.2233 0.18868 63.5123 0.566041C63.9458 0.943402 64.0903 1.44655 63.9458 2.07548L52.674 38.3019C52.385 39.434 51.5902 40 50.2896 40H34.2489Z" fill="#444B89"/>
</svg>
