<svg width="1920" height="943" viewBox="0 0 1920 943" fill="none" xmlns="http://www.w3.org/2000/svg">
<path d="M1987.78 158.759C1913.47 244.076 1780.68 360.424 1726.34 280.795C1658.42 181.258 1569.86 292.496 1545.95 319.914C1480.2 395.312 1403.08 314.623 1337.51 301.032C1239.88 280.795 1183.13 400.898 1168.16 447.039C1133.62 553.501 908.379 626.143 842.026 496.322C787.472 389.586 676.449 441.125 620.27 477.798C533.537 534.415 447.439 705.102 370.715 646.233C312.41 601.496 214.111 542.754 141.939 625.509C115.695 655.602 18.4959 777.694 -56.0515 668.445C-115.689 581.046 -261.437 708.747 -342.999 802.388" stroke="#464889" stroke-width="47.9061" stroke-linecap="round"/>
</svg>
